<svg version="1.1" xmlns="http://www.w3.org/2000/svg" xmlns:xlink="http://www.w3.org/1999/xlink" width="16" height="16" viewBox="0,0,256,256"><g fill="#ffffff" fill-rule="nonzero" stroke="none" stroke-width="1" stroke-linecap="butt" stroke-linejoin="miter" stroke-miterlimit="10" stroke-dasharray="" stroke-dashoffset="0" font-family="none" font-weight="none" font-size="none" text-anchor="none" style="mix-blend-mode: normal"><g transform="translate(0,-0.00004) scale(16,16)"><path d="M8,0l6.61,3h0.89c0.27614,0 0.5,0.22386 0.5,0.5v2c0,0.27614 -0.22386,0.5 -0.5,0.5h-0.5v7c0.22978,0.00018 0.42985,0.15694 0.485,0.38l0.5,2c0.03772,0.14926 0.00428,0.30758 -0.09058,0.42884c-0.09486,0.12126 -0.24047,0.19183 -0.39442,0.19116h-15c-0.15395,0.00067 -0.29956,-0.0699 -0.39442,-0.19116c-0.09486,-0.12126 -0.1283,-0.27958 -0.09058,-0.42884l0.5,-2c0.05546,-0.22286 0.25535,-0.37946 0.485,-0.38v-7h-0.5c-0.27614,0 -0.5,-0.22386 -0.5,-0.5v-2c0,-0.27614 0.22386,-0.5 0.5,-0.5h0.89zM3.777,3h8.447l-4.224,-2zM2,6v7h1v-7zM4,6v7h2.5v-7zM7.5,6v7h1v-7zM9.5,6v7h2.5v-7zM13,6v7h1v-7zM15,5v-1h-14v1zM14.61,14h-13.22l-0.25,1h13.72z"></path></g></g></svg>