<svg version="1.1" xmlns="http://www.w3.org/2000/svg" xmlns:xlink="http://www.w3.org/1999/xlink" width="16" height="16" viewBox="0,0,256,256"><g fill="#ffffff" fill-rule="nonzero" stroke="none" stroke-width="1" stroke-linecap="butt" stroke-linejoin="miter" stroke-miterlimit="10" stroke-dasharray="" stroke-dashoffset="0" font-family="none" font-weight="none" font-size="none" text-anchor="none" style="mix-blend-mode: normal"><g transform="translate(8,-0.00094) scale(16,16)"><path d="M14.763,0.075c0.14726,0.09107 0.23692,0.25185 0.237,0.425v15c0,0.27614 -0.22386,0.5 -0.5,0.5h-3c-0.27614,0 -0.5,-0.22386 -0.5,-0.5v-1.5h-1v1.5c0,0.27614 -0.22386,0.5 -0.5,0.5h-9c-0.27614,0 -0.5,-0.22386 -0.5,-0.5v-5.5c0.00016,-0.21512 0.1379,-0.40602 0.342,-0.474l5.658,-1.886v-3.14c0.00001,-0.18922 0.10683,-0.36223 0.276,-0.447l8,-4c0.15515,-0.07766 0.33948,-0.06933 0.487,0.022zM6,8.694l-5,1.666v4.64h5zM7,15h2v-1.5c0,-0.27614 0.22386,-0.5 0.5,-0.5h2c0.27614,0 0.5,0.22386 0.5,0.5v1.5h2v-13.691l-7,3.5z"></path><path d="M2,11h1v1h-1zM4,11h1v1h-1zM2,13h1v1h-1zM4,13h1v1h-1zM8,9h1v1h-1zM10,9h1v1h-1zM8,11h1v1h-1zM10,11h1v1h-1zM12,9h1v1h-1zM12,11h1v1h-1zM8,7h1v1h-1zM10,7h1v1h-1zM12,7h1v1h-1zM8,5h1v1h-1zM10,5h1v1h-1zM12,5h1v1h-1zM12,3h1v1h-1z"></path></g></g></svg>