<svg version="1.1" xmlns="http://www.w3.org/2000/svg" xmlns:xlink="http://www.w3.org/1999/xlink" width="16" height="16" viewBox="0,0,256,256"><g fill="#ffffff" fill-rule="none" stroke="none" stroke-width="1" stroke-linecap="butt" stroke-linejoin="miter" stroke-miterlimit="10" stroke-dasharray="" stroke-dashoffset="0" font-family="none" font-weight="none" font-size="none" text-anchor="none" style="mix-blend-mode: normal"><g transform="scale(16,16)"><path d="M11,15c2.20914,0 4,-1.79086 4,-4c0,-2.20914 -1.79086,-4 -4,-4c-2.20914,0 -4,1.79086 -4,4c0,2.20914 1.79086,4 4,4zM16,11c0,2.76142 -2.23858,5 -5,5c-2.76142,0 -5,-2.23858 -5,-5c0,-2.76142 2.23858,-5 5,-5c2.76142,0 5,2.23858 5,5z" fill-rule="evenodd"></path><path d="M9.438,11.944c0.047,0.596 0.518,1.06 1.363,1.116v0.44h0.375v-0.443c0.875,-0.061 1.386,-0.529 1.386,-1.207c0,-0.618 -0.39,-0.936 -1.09,-1.1l-0.296,-0.07v-1.2c0.376,0.043 0.614,0.248 0.671,0.532h0.658c-0.047,-0.575 -0.54,-1.024 -1.329,-1.073v-0.439h-0.375v0.45c-0.747,0.073 -1.255,0.522 -1.255,1.158c0,0.562 0.378,0.92 1.007,1.066l0.248,0.061v1.272c-0.384,-0.058 -0.639,-0.27 -0.696,-0.563h-0.668zM10.798,10.59c-0.369,-0.085 -0.569,-0.26 -0.569,-0.522c0,-0.294 0.216,-0.514 0.572,-0.578v1.1zM11.23,11.336c0.449,0.104 0.655,0.272 0.655,0.569c0,0.339 -0.257,0.571 -0.709,0.614v-1.195z" fill-rule="nonzero"></path><path d="M1,0c-0.55228,0 -1,0.44772 -1,1v8c0,0.55228 0.44772,1 1,1h4.083c0.058,-0.344 0.145,-0.678 0.258,-1h-2.341c0,-1.10457 -0.89543,-2 -2,-2v-4c1.10457,0 2,-0.89543 2,-2h10c0,1.10457 0.89543,2 2,2v3.528c0.38,0.34 0.717,0.728 1,1.154v-6.682c0,-0.55228 -0.44772,-1 -1,-1z" fill-rule="nonzero"></path><path d="M9.998,5.083l0.002,-0.083c-0.00057,-0.95084 -0.6705,-1.76984 -1.60236,-1.95888c-0.93186,-0.18905 -1.86799,0.30413 -2.23906,1.17958c-0.37106,0.87545 -0.07446,1.89113 0.70942,2.4293c0.86376,-0.82273 1.95376,-1.36843 3.13,-1.567z" fill-rule="nonzero"></path></g></g></svg>