<svg version="1.1" xmlns="http://www.w3.org/2000/svg" xmlns:xlink="http://www.w3.org/1999/xlink" width="16" height="16" viewBox="0,0,256,256"><g fill="#ffffff" fill-rule="nonzero" stroke="none" stroke-width="1" stroke-linecap="butt" stroke-linejoin="miter" stroke-miterlimit="10" stroke-dasharray="" stroke-dashoffset="0" font-family="none" font-weight="none" font-size="none" text-anchor="none" style="mix-blend-mode: normal"><g transform="translate(1.984,0) scale(16,16)"><path d="M5.5,13v1.25c0,0.138 0.112,0.25 0.25,0.25h1c0.13807,0 0.25,-0.11193 0.25,-0.25v-1.25h0.5v1.25c0,0.138 0.112,0.25 0.25,0.25h1c0.13807,0 0.25,-0.11193 0.25,-0.25v-1.25h0.084c1.992,0 3.416,-1.033 3.416,-2.82c0,-1.502 -1.007,-2.323 -2.186,-2.44v-0.088c0.97,-0.242 1.683,-0.974 1.683,-2.19c0,-1.532 -1.15,-2.462 -2.905,-2.462h-0.092v-1.25c0,-0.13807 -0.11193,-0.25 -0.25,-0.25h-1c-0.13807,0 -0.25,0.11193 -0.25,0.25v1.25h-0.573v-1.25c0,-0.13807 -0.11193,-0.25 -0.25,-0.25h-0.927c-0.13807,0 -0.25,0.11193 -0.25,0.25v1.25l-1.998,0.011c-0.13807,0 -0.25,0.11193 -0.25,0.25v0.989c0,0.137 0.11,0.25 0.248,0.25l0.755,-0.005c0.41226,0.00275 0.74501,0.33773 0.745,0.75v5.505c0,0.41421 -0.33579,0.75 -0.75,0.75l-0.748,0.011c-0.13807,0 -0.25,0.11193 -0.25,0.25v1c0,0.138 0.112,0.25 0.25,0.25zM6.927,4.487h1.719c0.906,0 1.438,0.498 1.438,1.312c0,0.871 -0.575,1.362 -1.877,1.362h-1.28zM6.927,8.538h1.84c1.137,0 1.756,0.58 1.756,1.524c0,0.953 -0.626,1.45 -2.158,1.45h-1.438v-2.973z"></path></g></g></svg>