<svg version="1.1" xmlns="http://www.w3.org/2000/svg" xmlns:xlink="http://www.w3.org/1999/xlink" width="16" height="16" viewBox="0,0,256,256"><g fill="#ffffff" fill-rule="nonzero" stroke="none" stroke-width="1" stroke-linecap="butt" stroke-linejoin="miter" stroke-miterlimit="10" stroke-dasharray="" stroke-dashoffset="0" font-family="none" font-weight="none" font-size="none" text-anchor="none" style="mix-blend-mode: normal"><g transform="translate(0,5.75079) scale(16,16)"><path d="M12.136,0.326c0.44793,-0.11205 0.92251,-0.01156 1.28658,0.27244c0.36407,0.28399 0.57706,0.71983 0.57742,1.18156v1.22h0.5c0.82843,0 1.5,0.67157 1.5,1.5v9c0,0.82843 -0.67157,1.5 -1.5,1.5h-13c-0.82843,0 -1.5,-0.67157 -1.5,-1.5v-9c-0.00029,-0.8022 0.63063,-1.46263 1.432,-1.499zM5.562,3h7.438v-1.22c-0.00035,-0.15372 -0.07139,-0.29873 -0.19263,-0.39323c-0.12124,-0.0945 -0.27922,-0.12797 -0.42837,-0.09077zM1.5,4c-0.27614,0 -0.5,0.22386 -0.5,0.5v9c0,0.27614 0.22386,0.5 0.5,0.5h13c0.27614,0 0.5,-0.22386 0.5,-0.5v-9c0,-0.27614 -0.22386,-0.5 -0.5,-0.5z"></path></g></g></svg>